<?xml version="1.0" standalone="yes"?>
<svg xmlns="http://www.w3.org/2000/svg" width="100" height="100">
<path style="fill:#ffe4d3; stroke:none;" d="M0 4C5.21648 6.18893 12.3809 5 18 5L57 5C51.7835 2.81107 44.6191 4 39 4L0 4z"/>
<path style="fill:#ff914d; stroke:none;" d="M0 5C1.40039 8.24488 3.02695 11.2676 5.3287 13.9853C18.4076 29.428 40.4199 22.49 58 24.1698C67.5184 25.0792 77.7598 27.4687 86 32.4784C89.9861 34.9018 93.1984 38.3326 97 41C95.7659 35.6658 94.3229 29.7403 91.5185 25C79.9922 5.51663 59.0645 5 39 5L0 5z"/>
<path style="fill:#ffc099; stroke:none;" d="M60.6667 5.33334C60.2222 5.77779 61.2778 5.72221 61.3333 5.66666C61.7777 5.22225 60.7222 5.27776 60.6667 5.33334z"/>
<path style="fill:#ffdfcc; stroke:none;" d="M62.6667 5.33334C62.2222 5.77779 63.2778 5.72221 63.3333 5.66666C63.7778 5.22225 62.7222 5.27777 62.6667 5.33334z"/>
<path style="fill:#ffc29d; stroke:none;" d="M65.6667 6.33334C65.2222 6.77776 66.2778 6.72221 66.3333 6.66666C66.7778 6.22223 65.7222 6.27776 65.6667 6.33334z"/>
<path style="fill:#ffd7be; stroke:none;" d="M69.6667 7.33334C69.2222 7.77777 70.2778 7.72221 70.3333 7.66666C70.7778 7.22223 69.7222 7.27776 69.6667 7.33334z"/>
<path style="fill:#ffeadd; stroke:none;" d="M72.6667 8.33334C72.2222 8.77777 73.2778 8.72221 73.3333 8.66666C73.7778 8.22221 72.7222 8.27779 72.6667 8.33334z"/>
<path style="fill:#ffbe95; stroke:none;" d="M74 9L75 10L74 9z"/>
<path style="fill:#ffc19b; stroke:none;" d="M76 10L77 11L76 10z"/>
<path style="fill:#ffc098; stroke:none;" d="M3 11L4 12L3 11z"/>
<path style="fill:#ffd0b3; stroke:none;" d="M78 11L79 12L78 11z"/>
<path style="fill:#ffd7bf; stroke:none;" d="M5 14L6 15L5 14z"/>
<path style="fill:#ffc7a5; stroke:none;" d="M82 14L83 15L82 14z"/>
<path style="fill:#ffd1b4; stroke:none;" d="M6 15L7 16L6 15z"/>
<path style="fill:#ffbd94; stroke:none;" d="M83 15L84 16L83 15z"/>
<path style="fill:#ffd2b6; stroke:none;" d="M7 16L8 17L7 16z"/>
<path style="fill:#ffbc92; stroke:none;" d="M86 18L87 19L86 18z"/>
<path style="fill:#ffc4a0; stroke:none;" d="M11 19L12 20L11 19z"/>
<path style="fill:#ffc5a2; stroke:none;" d="M87 19L88 20L87 19z"/>
<path style="fill:#ffd4b9; stroke:none;" d="M88 20L89 21L88 20z"/>
<path style="fill:#ffa770; stroke:none;" d="M17.6667 22.3333C17.2222 22.7778 18.2778 22.7222 18.3333 22.6667C18.7778 22.2222 17.7222 22.2778 17.6667 22.3333z"/>
<path style="fill:#ffd0b3; stroke:none;" d="M19.6667 23.3333C19.2222 23.7778 20.2778 23.7222 20.3333 23.6667C20.7778 23.2222 19.7222 23.2778 19.6667 23.3333z"/>
<path style="fill:#ffcaaa; stroke:none;" d="M90 23L91 24L90 23z"/>
<path style="fill:#ffe4d3; stroke:none;" d="M23 24C28.4692 26.295 36.0987 25 42 25C36.5308 22.705 28.9013 24 23 24z"/>
<path style="fill:#fff2ea; stroke:none;" d="M42 24C45.4324 25.4403 49.2998 25 53 25C49.5676 23.5597 45.7002 24 42 24z"/>
<path style="fill:#ffd5bb; stroke:none;" d="M53 24C54.769 24.7789 56.0359 24.9124 58 25C56.231 24.2211 54.9641 24.0876 53 24z"/>
<path style="fill:#ffba8f; stroke:none;" d="M58 24C59.2484 24.6848 59.5484 24.7488 61 25C59.7517 24.3152 59.4516 24.2512 58 24z"/>
<path style="fill:#ffccad; stroke:none;" d="M64.6667 25.3333C64.2222 25.7778 65.2778 25.7222 65.3333 25.6667C65.7778 25.2222 64.7222 25.2778 64.6667 25.3333z"/>
<path style="fill:#ffab77; stroke:none;" d="M66.6667 25.3333C66.2222 25.7778 67.2778 25.7222 67.3333 25.6667C67.7778 25.2222 66.7222 25.2778 66.6667 25.3333z"/>
<path style="fill:#ffc9a8; stroke:none;" d="M69.6667 26.3333C69.2222 26.7778 70.2778 26.7222 70.3333 26.6667C70.7778 26.2222 69.7222 26.2778 69.6667 26.3333z"/>
<path style="fill:#ffc4a0; stroke:none;" d="M73.6667 27.3333C73.2222 27.7778 74.2778 27.7222 74.3333 27.6667C74.7778 27.2222 73.7222 27.2778 73.6667 27.3333z"/>
<path style="fill:#ffac78; stroke:none;" d="M77.6667 28.3333C77.2222 28.7778 78.2778 28.7222 78.3333 28.6667C78.7778 28.2222 77.7222 28.2778 77.6667 28.3333z"/>
<path style="fill:#ffcbaa; stroke:none;" d="M82 30L83 31L82 30z"/>
<path style="fill:#ffc39e; stroke:none;" d="M72 31L72 33C73.6352 32.4549 73.455 32.6351 74 31L72 31z"/>
<path style="fill:#ffcdae; stroke:none;" d="M84 31L85 32L84 31z"/>
<path style="fill:#ffaa75; stroke:none;" d="M94.3333 31.6667C94.2778 31.7222 94.2222 32.7778 94.6667 32.3333C94.7222 32.2778 94.7778 31.2222 94.3333 31.6667z"/>
<path style="fill:#ff914d; stroke:none;" d="M73 32C75.0366 36.8982 77.8463 41.6855 78.6705 47C80.5451 59.0866 73.6139 72.2993 62 76.4514C54.5377 79.1192 45.7985 78 38 78C38 64.2195 35.1481 52.704 19 52L19 97C39.6373 97 65.9319 101.695 82.9105 87.331C98.7106 73.9641 103.569 46.3634 83 35.3241C79.7912 33.6019 76.5816 32.5368 73 32z"/>
<path style="fill:#ffe9db; stroke:none;" d="M76.6667 32.3333C76.2222 32.7778 77.2778 32.7222 77.3333 32.6667C77.7778 32.2222 76.7222 32.2778 76.6667 32.3333z"/>
<path style="fill:#ffc29c; stroke:none;" d="M86 32L87 33L86 32z"/>
<path style="fill:#fff0e7; stroke:none;" d="M10 33C13.9586 34.6611 18.7397 34 23 34L48 34C44.0414 32.3389 39.2604 33 35 33L10 33z"/>
<path style="fill:#ffbe96; stroke:none;" d="M73 33L74 34L73 33z"/>
<path style="fill:#ffdac3; stroke:none;" d="M10.3333 34.6667C10.2778 34.7222 10.2222 35.7778 10.6667 35.3333C10.7222 35.2778 10.7778 34.2222 10.3333 34.6667z"/>
<path style="fill:#ff9d60; stroke:none;" d="M11 34C14.9586 35.6611 19.7397 35 24 35L48 35C44.0414 33.3389 39.2604 34 35 34L11 34z"/>
<path style="fill:#ffb385; stroke:none;" d="M48 34C49.2484 34.6848 49.5484 34.7488 51 35C49.7516 34.3152 49.4516 34.2512 48 34z"/>
<path style="fill:#ffe7d8; stroke:none;" d="M51.6667 34.3333C51.2222 34.7778 52.2778 34.7222 52.3333 34.6667C52.7778 34.2222 51.7222 34.2778 51.6667 34.3333z"/>
<path style="fill:#ffc5a1; stroke:none;" d="M89 34L90 35L89 34z"/>
<path style="fill:#ffac78; stroke:none;" d="M95.3333 34.6667C95.2778 34.7222 95.2222 35.7778 95.6667 35.3333C95.7222 35.2778 95.7778 34.2222 95.3333 34.6667z"/>
<path style="fill:#ff914d; stroke:none;" d="M11 35C16.7175 49.7174 32.6001 44.9698 45 46.1698C55.4581 47.1818 62.999 51.0077 72 56C66.1202 27.889 32.5748 35 11 35z"/>
<path style="fill:#ffdfcb; stroke:none;" d="M54.6667 35.3333C54.2222 35.7778 55.2778 35.7222 55.3333 35.6667C55.7778 35.2222 54.7222 35.2778 54.6667 35.3333z"/>
<path style="fill:#ffc6a3; stroke:none;" d="M86 37L87 38L86 37z"/>
<path style="fill:#ffba8f; stroke:none;" d="M96.3333 37.6667C96.2778 37.7222 96.2222 38.7778 96.6667 38.3333C96.7222 38.2778 96.7778 37.2222 96.3333 37.6667z"/>
<path style="fill:#ffbe95; stroke:none;" d="M12 38L13 39L12 38z"/>
<path style="fill:#ffcfb1; stroke:none;" d="M62 39L63 40L62 39z"/>
<path style="fill:#ffe5d5; stroke:none;" d="M76.3333 39.6667C76.2778 39.7222 76.2222 40.7778 76.6667 40.3333C76.7222 40.2778 76.7778 39.2222 76.3333 39.6667z"/>
<path style="fill:#ffc19a; stroke:none;" d="M63 40L64 41L63 40z"/>
<path style="fill:#ffe5d5; stroke:none;" d="M97 40L96 42L98 42C98 40.1468 98.2997 40.6498 97 40z"/>
<path style="fill:#ffb88c; stroke:none;" d="M64 41L65 42L64 41z"/>
<path style="fill:#ffba8f; stroke:none;" d="M65 42L66 43L65 42z"/>
<path style="fill:#ffd3b8; stroke:none;" d="M77.3333 42.6667C77.2778 42.7222 77.2222 43.7778 77.6667 43.3333C77.7222 43.2778 77.7778 42.2222 77.3333 42.6667z"/>
<path style="fill:#ffc9a8; stroke:none;" d="M17 43L18 44L17 43z"/>
<path style="fill:#ffc39e; stroke:none;" d="M66 43L67 44L66 43z"/>
<path style="fill:#ffd4b9; stroke:none;" d="M67 44L68 45L67 44z"/>
<path style="fill:#ffc099; stroke:none;" d="M93 44L94 45L93 44z"/>
<path style="fill:#ffb182; stroke:none;" d="M21.6667 45.3333C21.2222 45.7778 22.2778 45.7222 22.3333 45.6667C22.7778 45.2222 21.7222 45.2778 21.6667 45.3333z"/>
<path style="fill:#ffbc93; stroke:none;" d="M78 45L78 54C79.2561 51.0059 79.2561 47.9941 78 45z"/>
<path style="fill:#ffcdae; stroke:none;" d="M23 46C27.2165 47.7693 32.4589 47 37 47C32.7835 45.2307 27.5411 46 23 46z"/>
<path style="fill:#ffdbc4; stroke:none;" d="M37 46C39.6127 47.0977 42.1645 46.9928 45 47C42.3873 45.9023 39.8355 46.0072 37 46z"/>
<path style="fill:#ffc29c; stroke:none;" d="M45 46C46.2484 46.6848 46.5484 46.7488 48 47C46.7516 46.3152 46.4516 46.2512 45 46z"/>
<path style="fill:#ffc9a8; stroke:none;" d="M52.6667 47.3333C52.2222 47.7778 53.2778 47.7222 53.3333 47.6667C53.7778 47.2222 52.7222 47.2778 52.6667 47.3333z"/>
<path style="fill:#ffcdae; stroke:none;" d="M56.6667 48.3333C56.2222 48.7778 57.2778 48.7222 57.3333 48.6667C57.7778 48.2222 56.7222 48.2778 56.6667 48.3333z"/>
<path style="fill:#ffb181; stroke:none;" d="M60.6667 49.3333C60.2222 49.7778 61.2778 49.7222 61.3333 49.6667C61.7778 49.2222 60.7222 49.2778 60.6667 49.3333z"/>
<path style="fill:#ffbe95; stroke:none;" d="M96.3333 50.6667C96.2778 50.7223 96.2222 51.7778 96.6667 51.3333C96.7222 51.2778 96.7778 50.2222 96.3333 50.6667z"/>
<path style="fill:#ffe4d3; stroke:none;" d="M19 51C20.506 51.683 21.3148 51.8259 23 52C21.4939 51.317 20.6852 51.1741 19 51z"/>
<path style="fill:#ffbd95; stroke:none;" d="M57 51L57 53C58.6352 52.4549 58.4549 52.6352 59 51L57 51z"/>
<path style="fill:#ffe2d0; stroke:none;" d="M18 52L18 98C19.552 94.3013 19 89.9828 19 86L19 65C19 60.7397 19.6611 55.9586 18 52z"/>
<path style="fill:#ffc8a6; stroke:none;" d="M24.6667 52.3333C24.2222 52.7778 25.2778 52.7222 25.3333 52.6667C25.7778 52.2222 24.7222 52.2778 24.6667 52.3333z"/>
<path style="fill:#ff914d; stroke:none;" d="M58 52C59.6899 56.5963 62.3953 56.9455 67 57C64.41 53.9882 61.9037 52.7067 58 52z"/>
<path style="fill:#ffb07f; stroke:none;" d="M71.3333 52.6667C71.2778 52.7222 71.2222 53.7778 71.6667 53.3333C71.7222 53.2778 71.7778 52.2222 71.3333 52.6667z"/>
<path style="fill:#ffdac2; stroke:none;" d="M97 53L97 59C97.9511 56.7147 97.9511 55.2853 97 53z"/>
<path style="fill:#ffc6a3; stroke:none;" d="M69 54L70 55L69 54z"/>
<path style="fill:#ffcfb2; stroke:none;" d="M31 55L32 56L31 55z"/>
<path style="fill:#ffc5a2; stroke:none;" d="M66 55L67 56L66 55z"/>
<path style="fill:#ffccad; stroke:none;" d="M70 55L71 56L70 55z"/>
<path style="fill:#ffc29c; stroke:none;" d="M72 55L71 57L73 57C73 55.1468 73.2997 55.6498 72 55M32 56L33 57L32 56z"/>
<path style="fill:#ffe3d1; stroke:none;" d="M59.3333 56.6667C59.2778 56.7222 59.2222 57.7778 59.6667 57.3333C59.7222 57.2778 59.7778 56.2222 59.3333 56.6667z"/>
<path style="fill:#ffa56d; stroke:none;" d="M60 57C62.8897 58.2129 65.8741 57.9983 69 58C66.1841 56.3714 63.2382 56.9438 60 57z"/>
<path style="fill:#ffeadc; stroke:none;" d="M77 56L77 59C77.6961 57.4463 77.6961 57.5537 77 56z"/>
<path style="fill:#ffbf98; stroke:none;" d="M33 57L34 58L33 57z"/>
<path style="fill:#ffcaaa; stroke:none;" d="M34 58L35 59L34 58z"/>
<path style="fill:#ffae7c; stroke:none;" d="M77.3333 59.6667C77.2778 59.7222 77.2222 60.7778 77.6667 60.3333C77.7222 60.2778 77.7778 59.2222 77.3333 59.6667z"/>
<path style="fill:#ffcdae; stroke:none;" d="M36 61L37 62L36 61z"/>
<path style="fill:#ffb587; stroke:none;" d="M96 61L96 64C96.6961 62.4463 96.6961 62.5537 96 61z"/>
<path style="fill:#ffad7b; stroke:none;" d="M76.3333 62.6667C76.2778 62.7222 76.2222 63.7778 76.6667 63.3333C76.7222 63.2778 76.7778 62.2222 76.3333 62.6667z"/>
<path style="fill:#ffb88c; stroke:none;" d="M37.3333 63.6667C37.2778 63.7222 37.2222 64.7778 37.6667 64.3333C37.7222 64.2778 37.7778 63.2222 37.3333 63.6667z"/>
<path style="fill:#ffc7a4; stroke:none;" d="M38 66L38 78C39.5124 74.3957 39.5124 69.6043 38 66z"/>
<path style="fill:#ffcbab; stroke:none;" d="M95.3333 66.6667C95.2778 66.7222 95.2222 67.7778 95.6667 67.3333C95.7222 67.2778 95.7778 66.2222 95.3333 66.6667z"/>
<path style="fill:#ffc6a3; stroke:none;" d="M73 68L74 69L73 68z"/>
<path style="fill:#ffbc92; stroke:none;" d="M93 72L94 73L93 72z"/>
<path style="fill:#ffc7a4; stroke:none;" d="M68 73L69 74L68 73z"/>
<path style="fill:#ffc8a5; stroke:none;" d="M61.6667 76.3333C61.2222 76.7778 62.2778 76.7222 62.3333 76.6667C62.7778 76.2222 61.7222 76.2778 61.6667 76.3333z"/>
<path style="fill:#ffba90; stroke:none;" d="M91 76L92 77L91 76z"/>
<path style="fill:#ffe7d9; stroke:none;" d="M39 77C43.974 79.0872 50.6381 78 56 78C51.026 75.9128 44.3619 77 39 77z"/>
<path style="fill:#ffd2b5; stroke:none;" d="M56 77C57.2483 77.6848 57.5484 77.7488 59 78C57.7517 77.3152 57.4516 77.2512 56 77z"/>
<path style="fill:#ffccad; stroke:none;" d="M90 78L91 79L90 78z"/>
<path style="fill:#ffd3b8; stroke:none;" d="M88 81L89 82L88 81z"/>
<path style="fill:#ffc39e; stroke:none;" d="M87 82L88 83L87 82z"/>
<path style="fill:#ffb88c; stroke:none;" d="M86 83L87 84L86 83z"/>
<path style="fill:#ffc098; stroke:none;" d="M82 87L83 88L82 87z"/>
<path style="fill:#ffd0b2; stroke:none;" d="M81 88L82 89L81 88z"/>
<path style="fill:#ffc5a2; stroke:none;" d="M78 90L79 91L78 90z"/>
<path style="fill:#ffe6d6; stroke:none;" d="M70.6667 94.3333C70.2222 94.7778 71.2778 94.7222 71.3333 94.6667C71.7778 94.2222 70.7222 94.2778 70.6667 94.3333z"/>
<path style="fill:#ffc8a5; stroke:none;" d="M66.6667 95.3333C66.2222 95.7778 67.2778 95.7222 67.3333 95.6667C67.7778 95.2222 66.7222 95.2778 66.6667 95.3333z"/>
<path style="fill:#ffdbc5; stroke:none;" d="M63.6667 96.3333C63.2222 96.7778 64.2778 96.7222 64.3333 96.6667C64.7778 96.2222 63.7222 96.2778 63.6667 96.3333z"/>
<path style="fill:#ffbe96; stroke:none;" d="M19 97C22.9586 98.6611 27.7397 98 32 98L57 98C53.0414 96.3389 48.2603 97 44 97L19 97z"/>
<path style="fill:#ffdcc7; stroke:none;" d="M57 97C58.2484 97.6848 58.5484 97.7488 60 98C58.7516 97.3152 58.4516 97.2512 57 97z"/>
</svg>
